<svg width="1280" height="800" viewBox="0 0 1280 800">
  <g fill="none" transform="translate(-118 -160)">
    <path fill="#E74BA9" d="M1531.78776,996.62891 C1528.41557,994.112412 1526.65311,992.776126 1524.6671,991.251456 C1518.98937,986.892639 1512.66133,981.900316 1505.84579,976.35467 C1486.37283,960.509979 1466.90027,943.412325 1448.73179,925.705678 C1425.87984,903.43461 1406.76015,881.80037 1392.60811,861.426356 C1385.62912,851.379032 1379.93811,841.743275 1375.63754,832.575376 C1372.50483,825.897116 1369.24077,818.856431 1365.07742,809.814903 C1363.60128,806.609191 1356.38572,790.907787 1354.36404,786.520119 C1342.22516,760.175097 1334.00977,742.860289 1325.66891,726.376486 C1301.99211,679.584723 1282.96526,651.776336 1265.25177,641.72899 C1247.05308,631.406434 1232.57836,630.180883 1215.41661,637.734187 C1200.36933,644.356864 1184.94745,656.026113 1149.5572,686.288814 C1137.15869,696.89096 1125.58314,702.499516 1113.98413,704.074074 C1104.14986,705.409069 1094.44251,703.935497 1082.49097,699.8664 C1077.64589,698.216813 1075.70739,697.452653 1064.25066,692.799933 C1050.71908,687.304588 1042.95803,684.612104 1033.77272,682.697919 C1021.75904,680.194313 1010.14795,680.041248 998.000727,682.656306 C980.007338,686.52993 966.715512,691.899426 955.153193,699.146177 C949.825964,702.485049 935.269669,713.435598 936.171554,712.800397 C925.483993,720.327699 916.526896,722.720265 900.440634,720.743281 C880.449148,718.28635 865.341943,712.94652 853.193483,704.845051 C844.133887,698.80346 838.603991,693.184724 828.251699,680.778007 C824.612184,676.416226 820.265589,673.568913 812.764562,670.059641 C813.71333,670.503511 803.460177,665.840241 800.416248,664.321126 C795.33025,661.78289 790.81774,659.125274 786.304127,655.888422 C774.846369,647.671705 764.062818,636.114343 753.227325,619.377989 C746.252813,608.605253 741.857304,597.822661 739.237339,586.081734 C737.26597,577.24738 736.558621,570.541391 735.551438,555.153446 C734.490029,538.937037 733.603477,531.619432 731.029885,522.700426 C727.651859,510.993583 721.798796,500.737073 712.358045,490.949018 C710.505156,489.027966 708.515577,487.128655 706.382825,485.247702 C700.244908,479.834445 679.92072,462.561646 679.36988,462.08644 C669.36149,453.452273 662.501905,447.060874 656.788223,440.836166 C635.242303,417.363201 632.513693,397.490882 651.596272,371.714467 C654.030667,368.426129 666.468547,351.839098 669.218242,348.053425 C674.357493,340.977907 677.35124,336.323431 679.115621,332.466625 C683.214853,323.506013 680.69676,318.084659 670.668631,313.344422 C666.338244,311.297474 660.852067,309.346313 650.259786,305.952036 C627.714215,298.727348 605.825391,277.330606 598.897521,252.832052 C590.30709,222.454296 603.912485,190.285147 643.804167,160.450902 C661.586319,147.151962 677.698865,136.063422 695.721932,124.446757 C700.047584,121.658683 727.975752,104.041652 735.212139,99.2455577 C748.736849,90.2817226 759.100851,82.4616493 769.151754,73.3590363 C785.195029,58.8294237 800.435263,40.8604906 817.858448,15.5198236 L814.56237,13.2535778 C797.305226,38.3527511 782.263007,56.088215 766.466651,70.3942054 C756.581,79.347158 746.371724,87.0504843 733.00233,95.9113795 C725.810972,100.67763 697.914281,118.274805 693.55489,121.084626 C675.458156,132.748772 659.270463,143.889027 641.408512,157.247647 C600.27294,188.012174 585.972316,221.825154 595.048463,253.920515 C602.353456,279.752663 625.255449,302.139797 649.039134,309.761236 C659.461067,313.100926 664.842684,315.0149 668.959211,316.960758 C677.1305,320.823277 678.598034,323.982821 675.478177,330.802595 C673.855507,334.34963 670.973256,338.830759 665.981867,345.702708 C663.253528,349.458977 650.831786,366.024487 648.381384,369.334447 C628.066472,396.775477 631.083394,418.747561 653.841423,443.541045 C659.682621,449.904674 666.640817,456.387954 676.757037,465.115145 C677.332411,465.611516 697.631949,482.863365 703.73704,488.247672 C705.789961,490.058219 707.701695,491.883217 709.479001,493.725907 C718.461864,503.039227 723.987287,512.721605 727.186683,523.809388 C729.654556,532.362014 730.517109,539.481536 731.559978,555.414698 C732.58039,571.00475 733.302756,577.853104 735.333358,586.952899 C738.053917,599.144619 742.629435,610.368793 749.869602,621.551855 C760.969465,638.696553 772.096164,650.621686 783.973054,659.138975 C788.671718,662.508534 793.36448,665.272308 798.630075,667.900175 C801.750229,669.45733 812.077529,674.154324 811.069533,673.682744 C818.084729,676.964726 822.000735,679.529974 825.180441,683.340695 C835.764816,696.025554 841.505661,701.858626 850.974209,708.172936 C863.660492,716.633064 879.361468,722.18277 899.952709,724.713411 C917.046546,726.814225 926.993064,724.15737 938.474842,716.070697 C937.695701,716.61945 952.121865,705.766796 957.277466,702.535493 C968.443485,695.537126 981.301035,690.343064 998.842562,686.566717 C1010.42006,684.074308 1021.46981,684.219973 1032.95666,686.613791 C1041.84126,688.465308 1049.42435,691.096053 1062.74559,696.505977 C1074.29192,701.195085 1076.25141,701.967518 1081.20178,703.652953 C1093.69118,707.905174 1103.98626,709.467965 1114.52219,708.03772 C1126.92796,706.353645 1139.20219,700.406565 1152.15681,689.328885 C1187.2114,659.35321 1202.48555,647.795744 1217.02795,641.395279 C1232.9843,634.372498 1246.1383,635.486226 1263.27827,645.208261 C1280.04109,654.716371 1298.79499,682.125833 1322.09981,728.182462 C1330.41314,744.611855 1338.61125,761.890245 1350.73113,788.194036 C1352.75176,792.579403 1359.96704,808.280209 1361.4441,811.487935 C1365.61107,820.537317 1368.87879,827.58589 1372.01618,834.274122 C1376.41893,843.659842 1382.22261,853.486375 1389.32289,863.708311 C1403.63948,884.319217 1422.9199,906.135331 1445.94001,928.570279 C1464.20183,946.367897 1483.76173,963.542235 1503.32122,979.457339 C1510.16705,985.027623 1516.52456,990.043208 1522.2313,994.424292 C1524.22985,995.958586 1526.0047,997.304267 1527.53555,998.45135 C1529.17572,999.673105 1531.78776,996.62891 1531.78776,996.62891 Z"/>
    <path fill="#3B393A" d="M793.452064 1036.32256C792.382871 1035.36375 791.8109 1034.84878 791.154332 1034.25587 789.277376 1032.56088 787.099638 1030.58181 784.646194 1028.33714 777.634652 1021.92224 769.821086 1014.66668 761.406143 1006.7184 737.364121 984.009649 713.322545 960.303745 690.887767 936.78585 679.494343 924.842368 668.793956 913.232411 658.907744 902.045606 642.375293 883.338211 628.360171 866.088492 617.274881 850.605205 613.597059 845.468237 609.842791 840.122271 606.006448 834.56308 596.095532 820.201308 585.721806 804.543986 574.571405 787.195946 565.336471 772.828033 555.928508 757.872521 544.652083 739.7081 539.955085 732.142026 522.076176 703.208895 517.917345 696.515797 498.089071 664.604765 487.350796 648.332386 480.27919 640.140546 468.403288 626.383351 449.443695 617.644081 431.035539 618.859657 408.849001 620.324738 389.389078 635.450096 375.854766 664.976647 363.06324 692.882734 337.231575 706.851643 302.843593 708.515139 275.462332 709.839689 243.974355 702.816406 222.203482 692.133967 181.629399 672.225247 147.64508 678.78949 104.913405 717.030059 96.6343193 724.439011 87.5105316 726.408604 77.4709293 723.591792 62.8442211 719.487976 46.9032008 705.494096 30.7737355 684.73467 23.8792068 675.861068 17.4167314 666.344863 11.5747357 656.827986 9.52997001 653.49697 7.70940056 650.40477 6.13619882 647.631398 5.58647311 646.662296 5.10721333 645.802806 4.7013063 645.062925 4.45917539 644.621572.684167883 646.047016.684167883 646.047016 1.60927668 647.743113 2.09775935 648.619142 2.65698443 649.604991 4.25221347 652.417194 6.09605523 655.548922 8.16577923 658.920596 14.0794684 668.554265 20.6221687 678.188604 27.6150916 687.188844 44.2300251 708.573092 60.7159265 723.045298 76.390374 727.443078 87.7239885 730.62295 98.265182 728.347376 107.580854 720.010783 149.156095 682.805107 181.412819 676.574557 220.441465 695.724969 242.801473 706.696483 274.957558 713.868784 303.036864 712.510467 338.794765 710.780702 366.003884 696.066911 379.490964 666.643399 392.445876 638.380872 410.674003 624.212936 431.299104 622.850965 448.398645 621.721802 466.163905 629.910553 477.251319 642.754356 484.124961 650.716871 494.831887 666.941745 514.519807 698.626895 518.67529 705.314604 536.553625 734.246808 541.253687 741.817815 552.540234 759.998544 561.958642 774.970659 571.206522 789.358714 582.379079 806.741223 592.776372 822.434117 602.714266 836.834982 606.563391 842.412695 610.330885 847.777494 614.022512 852.933745 625.196096 868.540356 639.294161 885.89216 655.910454 904.694427 665.83207 915.921293 676.566535 927.568226 687.993477 939.546843 710.481006 963.120037 734.570474 986.873164 758.659496 1009.62631 767.090419 1017.58969 774.919443 1024.8596 781.946121 1031.28835 784.406055 1033.53895 786.590192 1035.52384 788.473474 1037.22454 789.13299 1037.82011 789.707891 1038.33772 790.195044 1038.77503 790.487855 1039.03789 793.452064 1036.32256 793.452064 1036.32256zM14.4471905 543.573819C16.4477923 543.463453 17.4857896 543.401299 18.6545119 543.326945 21.9913251 543.11466 25.708511 542.847161 29.7112688 542.520149 41.1506018 541.585593 52.5912659 540.361384 63.278048 538.812148 83.7094994 535.850251 98.9046964 532.076965 106.940121 527.26558 110.324565 525.23907 111.400327 524.492924 121.837811 517.085765 129.834171 511.410997 135.334707 507.687056 141.703169 503.782392 171.787238 485.337093 202.571201 475.654327 239.353448 477.189854 307.3056 480.026613 373.03385 443.663145 409.084714 387.82433 418.839747 372.714858 428.365677 361.522118 438.558298 352.505559 442.663722 348.873833 446.814264 345.638584 451.565882 342.281746 453.420608 340.971452 455.2959 339.689827 457.71536 338.068329 457.779103 338.02561 462.368663 334.962539 463.65866 334.090841 474.86615 326.517539 481.278935 320.972609 487.608968 312.402049 493.787148 304.037091 497.161608 299.106385 500.028333 294.055092 504.435556 286.289377 507.325264 278.549021 510.185469 266.83625 512.744829 256.355466 514.401033 247.646693 520.916743 211.474594 533.303211 142.710858 592.065935 47.6476132 643.068313 14.2151874L640.875424 10.8698564C588.914846 44.9303895 529.553992 140.961258 516.9801 210.765483 510.484588 246.825451 508.83031 255.524093 506.29965 265.88735 503.521675 277.263382 500.758956 284.663586 496.549523 292.080787 493.782097 296.95711 490.480919 301.780738 484.391415 310.025633 478.382646 318.161217 472.282676 323.435667 461.419094 330.776578 460.140382 331.640649 455.560681 334.69714 455.488462 334.745541 453.044045 336.383764 451.143659 337.682539 449.257886 339.014767 444.394233 342.450753 440.130974 345.773862 435.908 349.509574 425.437068 358.772333 415.673818 370.243917 405.724235 385.654725 370.420832 440.335807 306.012327 475.969139 239.520288 473.193335 201.863445 471.621296 170.325878 481.5411 139.612371 500.372324 133.151081 504.333903 127.586257 508.101368 119.522842 513.823724 109.218786 521.136192 108.135208 521.88776 104.885238 523.83375 97.4566644 528.28177 82.6165593 531.966879 62.7041766 534.853528 52.1092441 536.389449 40.7480712 537.605152 29.3855671 538.533431 25.4076819 538.858411 21.7142708 539.124199 18.4005481 539.335016 17.2415828 539.408748 16.2131637 539.470329 15.3271834 539.520288 14.7970343 539.550182 14.4471905 543.573819 14.4471905 543.573819zM924.698492 1004.44049C924.012893 1003.27679 923.64667 1002.65718 923.225489 1001.94632 922.022622 999.916132 920.620385 997.5615 919.032411 994.909448 914.496158 987.333517 909.380643 978.892325 903.794917 969.802044 887.834992 943.828663 871.303777 917.854701 855.072508 893.608111 848.762518 884.182125 842.608101 875.185604 836.639509 866.678679 811.324259 830.597316 790.317523 804.645251 774.9608 791.607926 740.318327 762.19767 723.302751 746.16476 704.276693 723.133187 679.723568 693.410946 658.916655 658.430389 639.941388 613.047519 621.822507 569.712856 607.942332 550.296239 591.094043 540.951819 587.151125 538.764992 583.554636 537.267408 577.187991 534.971367 567.769776 531.574821 565.358922 530.631242 560.556467 528.210821 553.948208 524.880281 547.619899 520.613032 540.93546 514.740601 533.947941 508.601908 527.606349 503.817946 519.666339 498.407965 518.70663 497.754061 513.075638 493.966242 511.651778 492.981896 509.027133 491.167421 507.166935 489.773146 505.637487 488.443305 495.658269 479.766465 497.340779 471.106873 517.869569 428.917355 538.665802 386.178207 545.141952 360.198075 543.801998 331.906096 543.557562 326.745045 543.073544 321.392358 542.295979 314.790956 541.829687 310.832201 539.85721 295.568304 539.957162 296.359703 539.762551 294.818822 539.583166 293.371812 539.41227 291.96065 535.737392 261.615673 541.47607 226.644994 561.305043 186.741813 588.03207 132.957211 637.867107 76.1228308 715.455713 16.9245243L713.029384 13.7444416C634.980953 73.2935837 584.743015 130.587453 557.722942 184.96177 537.541489 225.574272 531.673746 261.331449 535.441283 292.44155 535.613046 293.859869 535.793262 295.313575 535.988688 296.860914 535.891418 296.090755 537.860253 311.326467 538.323442 315.258872 539.090972 321.775087 539.567042 327.039868 539.806477 332.09533 541.111632 359.65257 534.79582 384.989483 514.272769 427.167206 492.91095 471.068712 490.98127 481.000445 503.0129 491.461838 504.675163 492.907161 506.641322 494.380857 509.377131 496.272182 510.826185 497.273945 516.473301 501.07261 517.414033 501.713584 525.229352 507.038605 531.44644 511.728645 538.295451 517.745656 545.235205 523.842386 551.845792 528.299978 558.756201 531.782802 563.756511 534.302941 566.251345 535.279388 575.830995 538.734154 582.010406 540.962671 585.445587 542.393086 589.153969 544.449835 605.04745 553.264698 618.446968 572.008934 636.250981 614.590534 655.374665 660.32837 676.38331 695.648078 701.192844 725.68071 720.408997 748.942399 737.561221 765.104064 772.372039 794.65724 787.389721 807.40673 808.238578 833.163751 833.365068 868.976077 839.316155 877.458052 845.454195 886.430633 851.748544 895.833255 867.947804 920.032029 884.452176 945.963814 900.386897 971.896179 905.964297 980.972909 911.071924 989.401085 915.600581 996.96433 917.185325 999.610989 918.584404 1001.96032 919.78417 1003.98527 920.203911 1004.6937 920.568708 1005.3109 920.876857 1005.83349 921.061495 1006.14662 924.698492 1004.44049 924.698492 1004.44049z"/>
    <path fill="#3B393A" d="M933.582357,986.438778 C933.145032,985.559259 932.911336,985.088319 932.64311,984.546966 C931.876495,982.999729 930.987108,981.198923 929.985183,979.163274 C927.122129,973.346298 923.931697,966.814609 920.49577,959.71804 C910.679035,939.44254 900.86242,918.70464 891.701285,898.703824 C889.630165,894.182104 887.612662,889.741253 885.653505,885.389933 C873.888488,859.259636 864.559253,837.109154 858.359682,820.214751 C854.906586,810.804747 851.890156,801.389965 848.585035,790.044467 C847.58623,786.615863 842.442939,768.405752 841.029544,763.675386 C836.078788,747.106137 831.968207,737.267365 826.307207,730.007386 C819.524172,721.308448 810.677641,717.088067 798.557868,717.239979 C756.790177,717.763507 726.327244,691.924377 720.62633,642.644996 C716.320143,605.4218 712.124085,580.086509 705.537118,557.39234 C696.869532,527.529787 685.001636,507.581274 668.61253,498.829102 C661.603584,495.086157 653.984101,492.221054 643.614164,489.13134 C641.998542,488.649967 640.313504,488.161166 638.30235,487.587956 C637.525298,487.366484 636.738692,487.143458 635.665184,486.839933 C635.008418,486.654285 635.008418,486.654285 634.3533,486.46914 C633.830909,486.321482 633.43343,486.209041 633.046651,486.099472 C615.845205,481.22654 607.782192,478.171784 600.428673,472.853525 C591.119643,466.120989 585.967157,456.74017 584.940925,442.8821 C583.089735,417.883942 588.355029,403.442912 600.123729,390.737844 C601.841434,388.883471 608.267833,382.543894 609.626178,381.064869 C610.840394,379.742777 611.849481,378.524769 612.716673,377.311035 C613.209005,376.62196 615.002235,374.165028 615.297344,373.755789 C621.672851,364.914653 624.191101,358.680557 623.04331,350.156181 C621.569477,339.210366 613.233598,326.76276 596.29503,311.618431 C575.026078,292.60242 566.894577,282.358027 564.676839,270.818966 C562.531207,259.655079 565.571167,247.9082 576.956765,219.637873 C581.388649,208.633548 592.760959,194.507312 611.240471,176.267897 C624.916019,162.77003 632.999907,155.500723 669.834864,123.021623 C673.256252,120.004826 676.091693,117.499407 678.801507,115.097028 C703.513227,93.1889111 719.576881,78.1480484 732.963005,63.878341 C749.729194,46.0054595 760.226888,31.2457893 764.256052,18.8593006 L760.452237,17.6219687 C756.650301,29.3099111 746.440816,43.6643619 730.0457,61.1416764 C716.765677,75.2982799 700.773689,90.2720393 676.147968,112.103914 C673.441199,114.503594 670.608308,117.006759 667.1894,120.021369 C630.282032,152.564318 622.183814,159.846512 608.430599,173.421037 C589.581436,192.025299 577.942813,206.482339 573.246374,218.143549 C561.56155,247.156854 558.402236,259.364934 560.74873,271.573925 C563.186433,284.257479 571.73026,295.021337 593.628949,314.600379 C609.923757,329.169139 617.756163,340.864931 619.079084,350.689957 C620.056776,357.951042 617.883872,363.330209 612.052929,371.416181 C611.769117,371.809752 609.968718,374.276507 609.462043,374.985657 C608.69892,376.053735 607.791195,377.149394 606.680114,378.359188 C605.408888,379.743355 598.9906,386.074931 597.189233,388.019622 C584.678362,401.525911 579.017221,417.052625 580.951848,443.177503 C582.064453,458.201944 587.811223,468.664739 598.084572,476.094696 C605.947808,481.781595 614.303135,484.947098 631.956409,489.948027 C632.344062,490.057844 632.742221,490.170476 633.265293,490.318327 C633.920683,490.503549 633.920683,490.503549 634.576882,490.689037 C635.64792,490.991864 636.432109,491.214204 637.205951,491.434761 C639.203012,492.003954 640.873522,492.488541 642.471987,492.964802 C652.60716,495.984569 660.000061,498.764472 666.728281,502.357501 C681.93356,510.477482 693.300828,529.5845 701.695658,558.507321 C708.20367,580.929464 712.370727,606.089648 716.652831,643.104672 C722.593049,694.452627 754.820572,721.788509 798.608001,721.239665 C809.481831,721.103369 817.141199,724.757395 823.152822,732.467032 C828.4205,739.222592 832.380736,748.70151 837.196967,764.820528 C838.599865,769.515764 843.737932,787.70738 844.744673,791.163224 C848.073227,802.589164 851.116008,812.086189 854.604533,821.592741 C860.84329,838.593929 870.205398,860.822464 882.006152,887.032133 C883.968927,891.391487 885.989986,895.840166 888.064619,900.369555 C897.238844,920.398951 907.067258,941.161777 916.895552,961.461148 C920.335384,968.565783 923.529587,975.105195 926.396333,980.929669 C927.399838,982.968528 928.290782,984.772487 929.058935,986.322829 C929.880163,987.977634 929.960914,988.139886 930.002336,988.222999 L933.582357,986.438778 Z"/>
    <path fill="#3B393A" d="M857.869095,18.8928929 C857.44105,21.5677105 857.207238,22.9673286 856.934906,24.544663 C856.156206,29.0548479 855.225468,34.0819225 854.144121,39.4962769 C851.055218,54.962563 847.380675,70.4271919 843.134074,84.84954 C835.448344,110.951888 826.756887,130.657994 817.227375,141.24478 C813.49405,145.392307 809.169785,149.613939 803.345078,154.90792 C801.881665,156.237991 800.347869,157.615014 798.388728,159.361355 C797.682366,159.990992 794.28774,163.0104 793.344412,163.851805 C776.087009,179.244598 767.44395,188.384962 760.892606,199.85326 C752.289352,214.913481 750.522777,230.697945 756.681279,248.547446 C773.539395,297.408184 777.579761,323.228336 773.504586,353.091185 C773.214122,355.219701 772.950317,357.009398 772.394368,360.683561 C772.034543,363.061576 771.906845,363.911199 771.727384,365.133375 C769.210412,382.274565 768.98548,392.80985 772.009143,404.996424 C775.853164,420.489371 785.105997,435.866221 801.511304,452.627638 C810.914184,462.234627 816.404147,470.48682 818.99396,478.023129 C820.879561,483.510197 821.14429,487.40472 820.717865,494.458656 C820.251882,502.166949 820.593123,505.107446 823.42093,509.102022 C825.887951,512.586948 830.155673,515.775434 836.906594,519.109727 C871.257243,536.075581 874.162271,535.395734 946.639968,493.965171 C964.466647,483.774873 983.184407,478.124418 1003.74943,475.910686 C1019.21302,474.246101 1032.2623,474.46108 1055.92016,476.019533 C1076.71032,477.389077 1083.2247,477.628572 1091.96341,476.900472 C1103.64553,475.927132 1112.2962,472.862071 1118.79013,466.811663 C1125.06612,460.964316 1130.82335,454.048631 1137.78874,444.362248 C1140.37567,440.764737 1152.90861,422.569551 1156.73705,417.274955 C1164.79782,406.127194 1172.32281,396.885932 1180.85005,388.028717 C1193.27304,375.12501 1207.3114,363.676011 1224.01561,353.302085 C1255.48428,333.758896 1277.02431,307.228281 1291.96887,273.726311 C1296.91465,262.639102 1301.06159,250.992372 1304.87481,237.996817 C1307.58349,228.765551 1308.53653,225.051038 1313.34409,205.645951 C1318.94813,183.025949 1335.73943,143.275143 1355.36207,107.179756 C1378.52083,64.5797667 1402.64094,31.9273615 1423.24984,17.7353517 L1420.98119,14.4409306 C1399.7132,29.0868111 1375.28669,62.1540006 1351.8478,105.269283 C1332.07574,141.639534 1315.15864,181.688146 1309.46147,204.684043 C1304.6699,224.024573 1303.72261,227.716688 1301.03663,236.8706 C1297.27059,249.70535 1293.18227,261.187457 1288.31585,272.096769 C1273.67968,304.907404 1252.64827,330.811557 1221.90531,349.904052 C1204.91429,360.456093 1190.61798,372.115467 1177.96846,385.254475 C1169.2976,394.260856 1161.65832,403.642476 1153.49566,414.931158 C1149.63244,420.273856 1137.09552,438.474822 1134.5412,442.026975 C1127.71628,451.518025 1122.11347,458.248221 1116.06342,463.88506 C1110.31894,469.237199 1102.49575,472.00907 1091.63129,472.914285 C1083.17399,473.618937 1076.74119,473.382441 1056.18309,472.028184 C1032.30727,470.455373 1019.07879,470.237442 1003.32133,471.933661 C982.2324,474.203788 962.986082,480.013804 944.65488,490.492503 C873.229751,531.321384 871.488995,531.728763 838.677931,515.523313 C832.470517,512.457459 828.706208,509.645082 826.685677,506.790869 C824.559443,503.787339 824.297618,501.531174 824.710576,494.700024 C825.165909,487.167889 824.869966,482.814161 822.776828,476.723166 C819.976779,468.575072 814.161436,459.833786 804.369935,449.829741 C788.435899,433.549825 779.551724,418.785631 775.891429,404.033173 C773.022038,392.468374 773.237361,382.383146 775.684946,365.714494 C775.863245,364.500233 775.990447,363.653914 776.349349,361.282001 C776.908132,357.589107 777.173946,355.785782 777.467854,353.632024 C781.640352,323.055989 777.507584,296.645334 760.462542,247.24282 C754.688842,230.50861 756.321711,215.918816 764.365836,201.837366 C770.634858,190.863279 779.063445,181.949726 796.006973,166.836896 C796.947683,165.997827 800.341668,162.978988 801.050337,162.347295 C803.018287,160.593102 804.560958,159.208111 806.035433,157.867985 C811.950538,152.491844 816.361874,148.185207 820.200355,143.920857 C830.24158,132.765584 839.127163,112.619338 846.971194,85.9793646 C851.255101,71.4303202 854.956142,55.8541714 858.066656,40.2796797 C859.155106,34.8297619 860.092158,29.7685838 860.876588,25.2252084 C861.151351,23.6337968 861.387474,22.2203444 861.584798,21.0009957 C861.793025,19.6932204 857.869095,18.8928929 857.869095,18.8928929 Z"/>
    <path fill="#3B393A" d="M872.994082,20.6018436 C872.929073,21.6292747 872.895257,22.1708676 872.857172,22.7872289 C872.748388,24.5477436 872.627186,26.5546395 872.496669,28.7728049 C872.123791,35.109967 871.75092,41.8706457 871.402889,48.7740846 C871.075076,55.2764814 870.78607,61.5803817 870.54648,67.566035 C869.615863,90.8156102 869.508945,106.788626 870.535985,112.671944 C870.818749,114.291738 871.232014,116.211475 871.919428,119.176909 C872.045819,119.722144 872.177532,120.286361 872.363364,121.079595 C872.711868,122.566711 872.759987,122.772234 872.830605,123.074358 C873.21773,124.730587 873.513887,126.014915 873.802862,127.298801 C874.964871,132.461494 875.804627,136.746864 876.408029,140.850609 C878.956004,158.179437 876.58685,168.572843 867.699307,171.078228 C864.159928,172.075973 860.262049,172.686094 855.445576,173.083478 C853.249291,173.264682 851.631566,173.359269 847.47482,173.571666 C836.75647,174.119339 832.23754,174.682784 827.511189,176.60452 C821.103655,179.209825 817.25752,184.029526 816.08256,191.737392 C815.13789,197.934528 815.322781,201.843405 816.403123,208.396369 C817.642716,215.882461 817.847443,219.514523 816.985881,225.826617 C815.828841,234.30348 812.584091,245.454978 806.518913,260.889368 C787.378687,309.596557 788.28001,342.110031 807.544354,363.470894 C813.892237,370.50961 815.887214,375.190111 818.800373,386.506373 C820.328314,392.441709 821.399845,395.451166 823.533665,398.795027 C826.263358,403.072665 830.324016,406.657452 836.384847,409.907177 C848.265942,416.277638 864.98759,419.281223 880.904987,417.836391 C898.458613,416.243037 913.361184,409.522104 922.269078,398.091935 C933.777257,383.325209 948.979221,370.220596 968.490004,360.391233 C994.001723,347.53865 1024.79849,341.44082 1061.43829,343.835511 C1105.24283,346.698473 1142.9545,343.272572 1172.96278,332.709039 C1206.92759,320.752726 1230.49431,299.83102 1242.09428,269.209332 C1245.07511,261.340518 1258.11791,225.494635 1260.96504,217.816685 C1269.9462,193.596902 1277.93512,173.248268 1286.31201,153.728167 C1317.1073,81.9679657 1347.72192,34.9754451 1380.04884,18.6790932 L1378.24825,15.1072771 C1344.78089,31.9785366 1313.79813,79.5361487 1282.63619,152.150719 C1274.22901,171.741399 1266.21714,192.148505 1257.2146,216.425947 C1254.35922,224.126121 1241.3233,259.953095 1238.35367,267.792334 C1217.12562,323.830318 1154.41987,345.904034 1061.69917,339.844027 C1024.35449,337.403267 992.84579,343.64206 966.690322,356.818958 C946.619246,366.930593 930.9685,380.422071 919.114047,395.633119 C910.964244,406.090543 897.081359,412.351606 880.543391,413.852768 C865.375939,415.229528 849.436173,412.366386 838.275021,406.381948 C832.791078,403.441541 829.247543,400.313275 826.90561,396.643286 C825.063075,393.755893 824.102627,391.058417 822.674075,385.50916 C819.612972,373.618208 817.400207,368.426742 810.514794,360.791997 C792.457048,340.769046 791.598405,309.795155 810.241782,262.352326 C816.413953,246.645665 819.742911,235.204765 820.949133,226.367577 C821.874201,219.590217 821.648701,215.589642 820.465752,208.446281 C819.332018,201.571913 819.165682,198.055332 820.036881,192.340175 C820.998178,186.033958 823.907993,182.387587 829.017811,180.309933 C833.167941,178.622489 837.442642,178.089496 847.678941,177.566454 C851.878719,177.351859 853.521826,177.255788 855.774478,177.069932 C860.825677,176.653183 864.962212,176.005706 868.784602,174.92818 C875.056941,173.160018 878.862626,168.463246 880.460954,161.451429 C881.747582,155.807031 881.616577,148.777467 880.365478,140.268719 C879.745151,136.049864 878.887458,131.67296 877.705236,126.420462 C877.41345,125.124088 877.115029,123.829942 876.725621,122.163943 C876.372497,120.656144 876.372497,120.656144 876.257919,120.167213 C876.072738,119.376757 875.941646,118.815204 875.816103,118.273624 C875.144335,115.375686 874.743062,113.511654 874.476396,111.984074 C873.52194,106.516548 873.628637,90.576503 874.54328,67.726016 C874.782279,61.7550945 875.070662,55.464797 875.397815,48.9754855 C875.745243,42.0840104 876.117507,35.3343381 876.489763,29.0077586 C876.620043,26.7936145 876.74101,24.7906205 876.849557,23.0339209 C876.887538,22.4192572 876.921249,21.8793399 876.950304,21.4185615 C876.967719,21.1423686 872.994082,20.6018436 872.994082,20.6018436 Z"/>
    <path fill="#3B393A" d="M902.028713,19.2383278 C902.060376,20.5296742 902.07688,21.2137934 902.095473,21.9943142 C902.148601,24.2246288 902.207804,26.7799343 902.271562,29.6198138 C902.453734,37.7340424 902.635909,46.501648 902.805937,55.5992521 C903.027128,67.4344434 903.210968,78.9427744 903.344918,89.790236 C903.680013,116.926823 903.67795,137.676793 903.244282,149.463492 C903.001705,156.056503 903.180773,163.130606 903.732699,173.584703 C903.812908,175.103951 903.889765,176.502187 904.025193,178.926932 C905.121037,198.547364 905.263235,206.069262 904.210794,213.52893 C902.925408,222.639703 899.950089,226.445222 894.441585,225.750495 C893.116058,225.58332 891.741094,225.29317 890.311038,224.883816 C885.905103,223.622619 881.445705,221.453934 875.171706,217.784926 C874.478391,217.379478 873.778037,216.96554 872.84495,216.410855 C871.243798,215.458247 870.905129,215.257064 870.574876,215.061442 C868.76639,213.9902 867.469422,213.241674 866.235443,212.566735 C863.012183,210.803738 860.56145,209.750566 858.406887,209.317596 C852.488959,208.12836 849.223434,211.793768 848.89636,220.142742 C848.694221,225.302606 847.272154,230.68392 844.620686,237.049713 C843.108482,240.680298 841.916157,243.157855 838.283973,250.425283 C833.665556,259.666009 831.542009,264.388329 829.746944,270.065892 C827.363976,277.60292 826.610989,284.549701 827.732185,291.470389 C828.528673,296.38678 828.742646,301.727708 828.896039,315.064471 C828.991707,323.382357 829.055055,326.891635 829.232822,331.504429 C829.879341,348.280615 831.766136,360.162404 835.948251,368.828693 C841.327382,379.975467 850.383544,384.757634 863.470599,381.96392 C882.497194,377.902283 898.330789,367.450007 910.357829,352.795516 C919.698693,341.414028 926.100672,327.931949 927.42726,318.709743 C928.229268,313.134323 928.746523,309.834589 929.684333,304.815999 C931.085405,297.318317 932.756208,290.078628 934.752535,283.296741 C939.967151,265.58174 946.711606,253.347139 954.904944,249.03191 C964.825179,243.807168 977.254257,250.425377 992.646477,272.229261 C1016.18332,305.570423 1032.1145,318.297491 1049.22839,318.716163 C1054.38866,318.842403 1059.67778,317.911349 1066.31106,315.90841 C1070.20135,314.733729 1085.3305,309.409406 1085.27928,309.426729 C1095.30663,306.035284 1103.78287,303.775953 1113.26415,302.248932 C1148.42672,296.585774 1164.08458,292.868727 1178.74121,285.645273 C1195.69902,277.287695 1208.54329,264.4859 1221.77438,242.633386 C1227.44373,233.269864 1231.97627,220.926466 1237.58598,201.081451 C1238.69812,197.147112 1246.65426,167.669817 1249.33802,158.399349 C1254.46632,140.684794 1259.49875,125.758007 1265.39531,111.488511 C1281.63667,72.1849036 1303.4295,41.0158189 1334.54896,16.9040367 L1332.09904,13.7420911 C1300.37722,38.3205864 1278.18819,70.0563462 1261.6985,109.960886 C1255.7389,124.382938 1250.66173,139.442418 1245.49579,157.287038 C1242.79952,166.600705 1234.8389,196.094605 1233.73681,199.993384 C1228.21951,219.511488 1223.7834,231.592279 1218.35269,240.561652 C1205.49188,261.802614 1193.18796,274.065847 1176.97292,282.057355 C1162.79606,289.044356 1147.39563,292.700291 1112.62812,298.299823 C1102.90033,299.866545 1094.2191,302.180517 1083.99772,305.637586 C1083.96934,305.647186 1068.94319,310.93526 1065.15481,312.079169 C1058.89343,313.96981 1053.99757,314.831639 1049.32621,314.717359 C1033.82676,314.338183 1018.78767,302.323785 995.91426,269.922403 C979.507983,246.682054 965.224102,239.076203 953.040962,245.492762 C943.585188,250.472885 936.417555,263.475139 930.915326,282.167214 C928.877004,289.091766 927.176649,296.45951 925.752395,304.081248 C924.801715,309.168707 924.27743,312.513287 923.468012,318.140216 C922.251495,326.597229 916.165376,339.414132 907.26583,350.257891 C895.784832,364.247051 880.720677,374.191394 862.635528,378.052059 C851.402859,380.449914 844.149356,376.619654 839.550719,367.090239 C835.674085,359.056976 833.856507,347.61107 833.229855,331.350391 C833.053954,326.786023 832.991021,323.299751 832.895774,315.018468 C832.739665,301.445522 832.522598,296.027368 831.680704,290.830703 C830.668206,284.580965 831.354384,278.250533 833.56086,271.271731 C835.272532,265.857928 837.335536,261.270245 841.861983,252.213534 C845.538691,244.857021 846.75211,242.335633 848.313189,238.587707 C851.132275,231.819485 852.66994,226.000733 852.893294,220.299323 C853.134536,214.141322 854.497124,212.611877 857.618822,213.239197 C859.282662,213.573554 861.419429,214.491802 864.315961,216.076092 C865.501359,216.724459 866.763876,217.453103 868.536306,218.502986 C870.22531,219.506791 870.533069,219.689932 870.800982,219.849197 C871.741586,220.408351 872.449395,220.826695 873.152455,221.237841 C879.694132,225.063387 884.402505,227.353152 889.210249,228.729368 C890.830061,229.193039 892.404297,229.52524 893.941073,229.719057 C902.181211,230.758296 906.620731,225.080021 908.171569,214.087732 C909.276368,206.256949 909.132337,198.638075 908.018968,178.703871 C907.883755,176.28295 907.807073,174.887898 907.727136,173.373816 C907.181054,163.030408 907.004477,156.054722 907.241577,149.610565 C907.678444,137.736927 907.680512,116.942493 907.344613,89.7408459 C907.210551,78.8842486 907.026578,67.3676446 906.805238,55.524508 C906.635111,46.4215863 906.452833,37.6490305 906.270554,29.5300325 C906.206754,26.6882827 906.147509,24.1311563 906.094339,21.8990578 C906.075727,21.1177341 906.059203,20.4328214 906.044957,19.8493705 C906.030517,19.2606995 902.028713,19.2383278 902.028713,19.2383278 Z"/>
    <path fill="#3B393A" d="M899.81265 259.825817C900.606114 258.42184 901.490485 256.843848 902.442989 255.127747 905.16418 250.225053 907.885216 245.199806 910.423493 240.340207 911.063008 239.115839 911.683893 237.915208 912.284329 236.741193 915.631347 230.196871 918.242846 224.679043 919.902443 220.538862 923.039312 212.713342 930.350056 211.066651 936.44903 215.607962 942.349933 220.00179 944.749586 228.327095 941.407974 236.301269 939.549784 240.735515 937.042923 243.91831 932.547349 248.21209 931.90768 248.823046 929.664578 250.924301 929.323524 251.24722 928.042304 252.460316 927.036692 253.449643 926.068098 254.464354 918.554845 262.335328 913.933958 271.601178 911.295212 287.344597 908.361604 304.847232 901.131085 314.738398 890.177637 318.131195 881.814438 320.72167 872.372729 319.49273 859.909362 315.442562 853.445893 313.342156 849.418972 309.116684 847.44538 303.014823 845.908818 298.264153 845.630156 292.787412 846.143695 285.059973 846.245825 283.523175 846.357277 282.140075 846.570594 279.663991 847.104437 273.467387 847.250074 271.233451 847.212921 268.464865 847.103607 260.318905 851.845374 253.133246 858.873925 250.221443 866.328873 247.132992 874.617631 249.470484 880.645141 257.145397 886.849786 265.045858 892.3055 265.836208 897.146752 262.771779 897.702993 262.419688 898.195038 262.04264 898.613891 261.669253 898.751307 261.546754 898.859894 261.444038 898.938161 261.366766 899.288861 260.750981 899.535129 260.31687 899.81265 259.825817zM899.286115 266.151591C892.748197 270.289981 885.000726 269.167631 877.499315 259.615979 872.56133 253.328373 866.173609 251.526988 860.404875 253.916872 854.88753 256.202609 851.125238 261.903975 851.212561 268.411192 851.252198 271.364912 851.10231 273.664059 850.555832 280.007323 850.344644 282.458699 850.2348 283.821849 850.134891 285.325214 849.107777 300.780637 851.618224 308.54232 861.145588 311.638388 872.883875 315.45293 881.629944 316.591324 888.994124 314.310292 898.358915 311.409577 904.64786 302.80646 907.350241 286.683383 910.121004 270.152316 915.107106 260.154135 923.174685 251.702441 924.196576 250.631897 925.247242 249.598245 926.573372 248.342627 926.92772 248.00712 929.161968 245.914159 929.784588 245.319487 933.917101 241.372472 936.115494 238.581318 937.718801 234.755305 940.341132 228.497569 938.504482 222.125533 934.060127 218.816255 929.986505 215.783025 925.734297 216.740804 923.615259 222.027149 921.90093 226.303868 919.243515 231.918712 915.845595 238.562562 915.239812 239.747031 914.613679 240.957811 913.968984 242.192096 911.413456 247.084723 908.676842 252.138739 905.940384 257.06894 904.982711 258.794352 904.093346 260.381255 903.294996 261.793879 903.015382 262.288637 902.76705 262.726385 902.552841 263.102649 902.423998 263.328967 902.334963 263.484841 902.288575 263.565798L902.045215 263.90342C901.50861 264.504495 900.578919 265.333268 899.286115 266.151591zM921.55897 23.2107705C921.443328 24.0926693 921.387346 24.5516163 921.327192 25.0747168 921.155986 26.5635033 920.985034 28.2713165 920.825628 30.1732277 919.598559 44.8137017 919.748692 60.5842877 922.22638 75.4345239 924.390866 88.4075557 928.206952 99.548878 933.967981 108.300531 938.626445 115.377264 943.380069 121.061279 948.727919 126.253624 950.800232 128.265678 952.88214 130.135256 955.458982 132.335964 956.084873 132.870497 960.388941 136.494655 961.572173 137.51964 970.603657 145.343243 974.95001 151.565388 978.136533 163.265862 978.772253 165.600139 979.447069 168.195674 980.410122 171.983388 980.588264 172.684027 980.771683 173.407158 981.023029 174.399339 981.335868 175.634551 981.50497 176.302192 981.655296 176.895183 982.178376 178.958587 982.578686 180.53031 982.981214 182.09759 985.25299 190.942959 987.157254 197.888436 989.230258 204.669299 993.860178 219.813912 998.723276 231.924772 1004.31002 241.22341 1011.16045 252.625333 1018.92809 259.414207 1027.93564 260.775043 1034.12594 261.710256 1038.79195 263.851031 1043.38696 267.30909 1043.45881 267.363163 1050.19417 272.963016 1052.04373 273.953574 1059.0899 277.727251 1065.45058 272.952972 1078.92722 253.843811 1091.31115 236.284051 1098.31828 231.313195 1105.6893 232.552541 1106.92965 232.761091 1108.25026 233.13053 1109.9023 233.710173 1110.93069 234.070999 1115.00346 235.622533 1114.74253 235.525067 1121.79866 238.160801 1127.20653 239.272159 1134.35192 238.872617 1152.7922 237.841508 1173.91753 230.72807 1192.04702 216.996121 1216.25794 198.657866 1233.27805 170.253146 1240.36794 130.662733 1243.57451 112.757005 1247.18681 96.4412867 1251.13107 81.6482104 1256.83665 60.249265 1262.94273 43.0448492 1269.03909 29.6595226 1271.16414 24.993709 1273.13296 21.1418858 1274.89434 18.0570599 1275.50588 16.9860295 1276.04635 16.0891471 1276.50935 15.3605366 1276.78016 14.9343744 1276.9607 14.6647507 1277.04458 14.5457886L1273.77555 12.2406956C1273.65466 12.4121438 1273.43845 12.7350407 1273.13332 13.2152096 1272.63643 13.9971509 1272.06342 14.9480312 1271.4207 16.0736743 1269.59848 19.2650586 1267.57414 23.2254911 1265.39887 28.00158 1259.20859 41.5931174 1253.02804 59.0073662 1247.2661 80.6176953 1243.29284 95.5195077 1239.65652 111.943751 1236.43058 129.957627 1229.51547 168.572069 1213.02956 196.085252 1189.63187 213.80754 1172.1694 227.034268 1151.80863 233.890257 1134.1286 234.878856 1127.62005 235.242788 1122.72468 234.236753 1116.14222 231.777953 1116.4512 231.89337 1112.31393 230.317259 1111.22661 229.935759 1109.3773 229.286899 1107.85044 228.859765 1106.35254 228.607911 1097.02698 227.039933 1088.83977 232.847942 1075.65837 251.538468 1063.32811 269.02211 1058.32294 272.778956 1053.93221 270.427434 1052.50282 269.661903 1046.17781 264.403225 1045.79221 264.113032 1040.69744 260.278874 1035.42909 257.861741 1028.53317 256.819925 1014.22681 254.658559 1002.96507 235.914392 993.055495 203.49987 991.003218 196.786806 989.113516 189.894445 986.855476 181.102555 986.454164 179.54001 986.054793 177.971971 985.532648 175.91226 985.382442 175.31974 985.213465 174.652591 984.900545 173.417061 984.648938 172.423846 984.465263 171.699708 984.286777 170.997721 983.318601 167.189855 982.638977 164.575827 981.995966 162.214779 978.580721 149.674471 973.78142 142.803894 964.191191 134.496274 962.982376 133.449128 958.66307 129.812138 958.056691 129.29427 955.539442 127.144455 953.517641 125.328855 951.514314 123.38378 946.370322 118.389365 941.803446 112.928649 937.309059 106.101169 931.893167 97.8738179 928.251783 87.2425463 926.171842 74.7762431 923.757167 60.303684 923.609999 44.8445425 924.811653 30.5073102 924.967537 28.6474107 925.134397 26.9804767 925.301002 25.5316922 925.359082 25.0266428 925.412888 24.5855262 925.461018 24.2114871 925.489512 23.9900446 921.55897 23.2107705 921.55897 23.2107705z"/>
    <path fill="#3B393A" d="M1010.40903 12.3827039C1008.15325 15.508432 1004.57058 18.2738857 997.89677 22.4179716 996.955564 23.0024113 993.624771 25.043896 993.529427 25.1026061 982.857168 31.6742526 977.701747 35.9109854 974.643691 42.0424086 970.581266 50.1875969 972.40703 59.7017525 980.986589 71.3465846 994.700772 89.9605223 1001.67724 101.037008 1006.8461 112.213507 1008.31972 115.399875 1009.70251 118.705598 1011.19454 122.571945 1012.23767 125.275035 1013.29604 128.143582 1014.80242 132.321003 1015.08439 133.102958 1015.37627 133.914405 1015.77531 135.02523 1016.0249 135.720107 1016.0249 135.720107 1016.27852 136.426316 1016.53426 137.138324 1016.6409 137.435158 1016.7944 137.862201 1017.65065 140.244279 1018.3182 142.093147 1019.00687 143.986021 1019.74703 146.020375 1026.90408 166.293629 1029.30114 172.778479 1033.85758 185.10516 1037.78397 194.56741 1041.55015 201.880308 1045.66079 209.862073 1049.4197 214.951581 1053.13131 216.95418 1058.00981 219.586372 1062.32351 216.936914 1065.42777 209.711336 1075.6486 185.921018 1082.72403 177.053263 1096.49234 167.138111 1098.65597 165.579984 1100.50001 163.366889 1102.88752 159.782938 1103.50249 158.859784 1105.62404 155.564955 1105.97387 155.032196 1110.20264 148.592077 1113.40356 145.248494 1117.74694 143.596731 1123.35726 141.463158 1130.54471 142.756401 1140.20335 148.453452 1144.51545 150.996907 1148.63637 154.024522 1154.00593 158.423448 1155.365 159.536839 1160.17851 163.54659 1159.85757 163.2805 1162.16696 165.195196 1163.87563 166.572799 1165.53698 167.841363 1169.81311 171.106498 1173.36904 173.300926 1176.84926 174.661253 1193.75307 181.268501 1208.04046 167.165204 1226.34259 122.185644 1238.76542 91.6551415 1243.28433 67.0797519 1241.17235 47.5123677 1239.48752 31.9024713 1233.76727 20.2515269 1224.89929 11.0411853 1222.75466 8.81376145 1220.50326 6.80466421 1217.96743 4.78472155 1217.01461 4.02574071 1216.07311 3.30441877 1214.90179 2.4280814 1215.03497 2.5277246 1212.83869.892177505 1212.31713.495894399L1209.8972 3.6808439C1210.43682 4.09085594 1212.65406 5.74200644 1212.50556 5.63090389 1213.64719 6.48503344 1214.55868 7.18335846 1215.47522 7.91343652 1217.88217 9.83072441 1220.00539 11.7254369 1222.01782 13.8155511 1230.28864 22.4056784 1235.60885 33.2418354 1237.19545 47.9416097 1239.22924 66.7845367 1234.82842 90.7176578 1222.63756 120.678072 1205.07465 163.840915 1192.33275 176.418631 1178.30546 170.935737 1175.23516 169.735638 1171.96978 167.720506 1167.96451 164.662194 1166.35401 163.432459 1164.68232 162.084671 1162.41059 160.201201 1162.74312 160.4769 1157.91486 156.45486 1156.54083 155.329214 1151.02649 150.811678 1146.75817 147.675767 1142.23553 145.008135 1131.61972 138.7465 1123.22132 137.235371 1116.32511 139.857963 1110.97352 141.893141 1107.28875 145.742146 1102.63026 152.836681 1102.26401 153.394445 1100.15241 156.673815 1099.55854 157.565294 1097.4189 160.77717 1095.82635 162.688448 1094.15481 163.892195 1079.79453 174.233659 1072.25834 183.678873 1061.75259 208.132401 1059.46021 213.468225 1057.41849 214.722239 1055.03068 213.433895 1052.25492 211.936235 1048.86325 207.343968 1045.10626 200.048897 1041.43087 192.912272 1037.5578 183.578513 1033.05303 171.391629 1030.66857 164.940884 1023.51617 144.68082 1022.76582 142.618418 1022.07919 140.731169 1021.41326 138.886781 1020.55861 136.509143 1020.40525 136.082493 1020.29871 135.785962 1020.04309 135.074251 1019.78949 134.368135 1019.78949 134.368135 1019.53978 133.672921 1019.14024 132.560702 1018.84787 131.747895 1018.56525 130.964125 1017.04966 126.761164 1015.98234 123.868366 1014.92631 121.131851 1013.40497 117.189522 1011.98944 113.805558 1010.47664 110.534469 1005.17558 99.0721108 998.06709 87.7860165 984.206923 68.9739398 976.442618 58.4356311 974.912989 50.4646523 978.223185 43.8276869 980.830297 38.6004116 985.589492 34.6892971 995.626766 28.5086548 995.713354 28.4553367 999.053902 26.4078728 1000.00685 25.8161395 1007.11267 21.403802 1010.9933 18.408353 1013.65258 14.7235142L1010.40903 12.3827039zM1424.05498 606.471419C1422.52491 602.518582 1420.56854 598.121015 1418.14474 593.3898 1411.22923 579.890895 1401.9512 566.39772 1389.98014 553.804186 1373.51714 536.485125 1353.25227 522.274928 1328.80492 512.257111 1307.01574 503.328534 1295.91029 497.528643 1290.30594 491.979761 1284.71058 486.439766 1284.4037 481.093621 1288.56508 470.955561 1289.4738 468.741717 1290.59726 466.276948 1292.18345 462.976253 1292.99813 461.280991 1296.2111 454.707743 1296.85773 453.372014 1301.30812 444.179076 1304.63847 436.740489 1307.95938 428.219488 1311.55381 418.996672 1314.73719 409.411833 1317.53799 399.10559 1322.22795 381.847759 1324.61472 365.757141 1325.25886 349.315057 1325.74582 336.885044 1325.37287 327.280362 1324.03316 307.844869 1323.51578 300.339167 1323.34226 297.700645 1323.13307 293.887665 1322.14258 275.833839 1322.54074 262.42333 1325.0346 248.089125 1328.07201 230.630743 1334.25758 212.90354 1344.58564 193.314109 1353.6097 176.198008 1368.12076 160.613277 1388.13953 145.557567 1404.43645 133.30099 1423.2082 122.07837 1449.62851 108.11959 1451.9994 106.866968 1490.65432 86.8815945 1501.0956 81.1633194 1520.76664 70.3902713 1534.71481 61.394195 1545.26695 52.1761339 1557.76623 41.257098 1565.08501 30.2252831 1567.01308 18.3029966L1563.06438 17.6644148C1559.76723 38.0524623 1540.07437 55.2556162 1499.17423 77.6549952 1488.78278 83.3459811 1450.16806 103.310569 1447.75993 104.582866 1421.16801 118.632318 1402.23705 129.950113 1385.73528 142.360761 1365.28129 157.743783 1350.37934 173.748327 1341.0473 191.448601 1330.52845 211.399909 1324.20456 229.523507 1321.0938 247.403504 1318.53995 262.082505 1318.13339 275.775962 1319.13908 294.106787 1319.34967 297.945376 1319.52388 300.594462 1320.04262 308.119941 1321.37288 327.418234 1321.74161 336.914186 1321.26192 349.158472 1320.62935 365.305262 1318.28693 381.096857 1313.67799 398.056603 1310.91515 408.223159 1307.7764 417.673622 1304.23243 426.766973 1300.95552 435.175081 1297.6656 442.523356 1293.25743 451.629074 1292.61635 452.95333 1289.39988 459.533754 1288.57815 461.243681 1286.96108 464.60864 1285.8086 467.137068 1284.86468 469.436656 1280.1502 480.92221 1280.55378 487.953036 1287.49162 494.822218 1293.60254 500.872666 1305.0025 506.826368 1327.28823 515.958416 1351.19763 525.755799 1370.99654 539.639249 1387.08097 556.560054 1398.77371 568.860799 1407.8359 582.040066 1414.58472 595.213603 1416.94342 599.817742 1418.84347 604.088719 1420.32469 607.915344 1420.84086 609.248846 1421.26735 610.429692 1421.60916 611.443969 1422.59107 614.240043 1422.89207 615.016123 1423.24446 615.905424 1424.24871 618.43975 1425.46446 621.376638 1426.89568 624.682582 1430.98006 634.117014 1435.97373 644.625001 1441.90856 655.938495 1458.86124 688.25517 1479.95977 720.570265 1505.46296 750.737984 1521.29749 769.468643 1538.38111 786.791754 1556.7487 802.420748 1561.76815 806.691803 1566.73739 811.031799 1571.6559 815.437213 1608.93374 848.826266 1641.9132 884.60453 1670.24721 920.380855 1680.16215 932.900092 1688.78701 944.523037 1696.07872 954.95072 1698.62877 958.597482 1700.82947 961.833406 1702.67543 964.621123 1703.3204 965.595129 1703.87468 966.443079 1704.3376 967.160301 1704.61382 967.588261 1708.27227 965.887821 1708.27227 965.887821 1707.22702 964.260868 1706.66419 963.399826 1706.01053 962.412693 1704.14614 959.597158 1701.92645 956.33331 1699.35678 952.658489 1692.02071 942.167363 1683.34863 930.480779 1673.38292 917.897446 1644.91509 881.952144 1611.78344 846.00878 1574.32464 812.457646 1569.38108 808.029795 1564.38633 803.667518 1559.34089 799.374345 1541.14569 783.892041 1524.21527 766.724283 1508.51767 748.155593 1483.21646 718.226799 1462.27533 686.152772 1445.45077 654.080326 1439.56356 642.857626 1434.61243 632.439149 1430.56645 623.093421 1429.15205 619.826308 1427.95224 616.927933 1426.96314 614.431859 1426.61787 613.560519 1426.32381 612.802327 1426.08047 612.161476 1425.03929 609.097073 1424.59276 607.860729 1424.05498 606.471419z"/>
  </g>
</svg>
