<?xml version="1.0" encoding="utf-8"?>
<!-- Generator: Adobe Illustrator 16.0.0, SVG Export Plug-In . SVG Version: 6.00 Build 0)  -->
<!DOCTYPE svg PUBLIC "-//W3C//DTD SVG 1.1//EN" "http://www.w3.org/Graphics/SVG/1.1/DTD/svg11.dtd">
<svg version="1.1" id="Layer_1" xmlns="http://www.w3.org/2000/svg" xmlns:xlink="http://www.w3.org/1999/xlink" x="0px" y="0px"
	 width="58.034px" height="57.5px" viewBox="0 0 58.034 57.5" enable-background="new 0 0 58.034 57.5" xml:space="preserve">
<path d="M57.442,55.225c0.432-0.906,0.6-1.964,0.592-3.188c-0.092-15.762-0.045-31.524-0.048-47.287c0-0.427-0.013-0.813-0.038-1.17
	c-0.43-1.995-2.184-3.509-4.289-3.573C53.513,0.004,53.372,0,53.216,0C36.973,0,20.729-0.001,4.486,0.001
	C2.252,0.014,0.394,1.667,0.047,3.809C0.045,3.897,0.04,3.981,0.04,4.073C0.027,20.364,0.063,36.654,0,52.945
	c-0.001,0.256,0.016,0.498,0.044,0.729c0.011,0.066,0.018,0.135,0.031,0.201c0,0.003,0.001,0.006,0.001,0.01
	C0.502,55.942,2.333,57.5,4.512,57.5c16.337,0,32.674,0,49.011,0C55.194,57.5,56.657,56.582,57.442,55.225z M17.118,48.712
	c-2.68,0-5.419,0-8.322,0c0-9.002,0-18.072,0-27.332c2.835,0,5.52,0,8.322,0C17.118,30.496,17.118,39.511,17.118,48.712z
	 M12.891,17.655c-2.802-0.011-5.168-2.383-5.158-5.171c0.009-2.789,2.379-5.209,5.127-5.238c2.845-0.029,5.314,2.459,5.281,5.322
	C18.109,15.339,15.705,17.667,12.891,17.655z M49.384,34.971c0,0,0,9.039,0,13.743c-2.804,0-5.542,0-8.603,0
	c0-2.01,0-12.928,0-16.332c0-2.705-1.475-4.078-3.563-4.304c-2.429-0.263-4.487,0.907-5.397,3.162
	c-0.674,1.669-0.547,3.527-0.547,4.442c0,3.443,0,9.08,0,13.168c-2.993,0-5.624,0-8.428,0c0-9.114,0-18.184,0-27.414
	c2.539,0,5.66,0,8.428,0c0,0.974,0,1.958,0,3.334c3.193-3.648,6.484-4.978,10.959-4.14c3.828,0.718,5.828,3.04,6.645,6.699
	C49.46,29.939,49.384,34.971,49.384,34.971z"/>
</svg>
