<?xml version="1.0" encoding="UTF-8"?>
<svg width="120px" height="120px" viewBox="0 0 120 120" version="1.1" xmlns="http://www.w3.org/2000/svg" xmlns:xlink="http://www.w3.org/1999/xlink">
    <g id="twitter" fill-rule="nonzero" fill="#000000">
        <path d="M120,22.6009974 C115.584768,24.5686812 110.840338,25.8989959 105.859761,26.4966671 C110.943048,23.4350906 114.846922,18.5862345 116.684736,12.8093339 C111.928015,15.6441923 106.659058,17.7031808 101.051245,18.8129526 C96.5600788,14.0046764 90.1617467,11 83.0808733,11 C69.4835947,11 58.4606604,22.0769875 58.4606604,35.7396198 C58.4606604,37.678633 58.6783714,39.5669213 59.0979918,41.3775784 C38.6371117,40.3458788 20.4964336,30.496433 8.35378029,15.5286278 C6.23460989,19.1825825 5.02052013,23.4324441 5.02052013,27.9663649 C5.02052013,36.5494533 9.36683856,44.1220142 15.9727861,48.5588962 C11.9372325,48.4305402 8.1408976,47.3176808 4.8216833,45.4642383 C4.81992756,45.5674523 4.81948863,45.6711075 4.81948863,45.7752038 C4.81948863,57.7621512 13.3058268,67.7615661 24.5684187,70.0344812 C22.5023592,70.5995121 20.3274443,70.9020969 18.0823,70.9020969 C16.4959947,70.9020969 14.9535828,70.7468348 13.4502359,70.4583647 C16.5833425,80.2870793 25.6754087,87.4401676 36.4485899,87.6399794 C28.0228245,94.275233 17.4072205,98.2304493 5.87292876,98.2304493 C3.88587731,98.2304493 1.92603971,98.1131205 0,97.8850791 C10.8952046,104.904518 23.8362778,109 37.739054,109 C83.023373,109 107.786239,71.3017207 107.786239,38.608883 C107.786239,37.5361623 107.762098,36.4691758 107.715132,35.4083644 C112.524965,31.9198169 116.699221,27.5623304 120,22.6009974 Z" id="Shape"></path>
    </g>
</svg>
