<?xml version="1.0" encoding="UTF-8"?>
<svg width="26px" height="26px" viewBox="0 0 26 26" version="1.1" xmlns="http://www.w3.org/2000/svg" xmlns:xlink="http://www.w3.org/1999/xlink">
    <g id="Page-1" stroke="none" stroke-width="1" fill="none" fill-rule="evenodd">
        <g id="Desktop-HD" transform="translate(-1014.000000, -1182.000000)" fill="#3D5794">
            <g id="Group-2" transform="translate(1014.000000, 1182.000000)">
                <g id="instagram">
                    <path d="M13,2.3457262 C16.4700714,2.3457262 16.8810675,2.35893255 18.2514326,2.42145635 C19.5185198,2.4792857 20.2066429,2.691 20.6646349,2.86892461 C21.2711984,3.10467857 21.7041706,3.38634523 22.1589128,3.84108729 C22.6136547,4.29582937 22.8953214,4.72880159 23.1310237,5.33536508 C23.309,5.79335714 23.5207143,6.48148016 23.5785437,7.74851588 C23.6410675,9.11893255 23.6542737,9.52992857 23.6542737,13 C23.6542737,16.4700714 23.6410675,16.8810675 23.5785437,18.2514326 C23.5207143,19.5185198 23.309,20.2066429 23.1310237,20.6646349 C22.8953214,21.2711984 22.6136547,21.7041706 22.1589128,22.1589128 C21.7041706,22.6136547 21.2711984,22.8953214 20.6646349,23.1310237 C20.2066429,23.309 19.5185198,23.5207143 18.2514326,23.5785437 C16.8812738,23.6410675 16.4702778,23.6542737 13,23.6542737 C9.52972221,23.6542737 9.1187262,23.6410675 7.74856745,23.5785437 C6.48148016,23.5207143 5.79335714,23.309 5.33541667,23.1310237 C4.72880159,22.8953214 4.29582937,22.6136547 3.84108729,22.1589128 C3.38634523,21.7041706 3.10467857,21.2711984 2.8689762,20.6646349 C2.691,20.2066429 2.4792857,19.5185198 2.42145635,18.2514841 C2.35893255,16.8810675 2.3457262,16.4700714 2.3457262,13 C2.3457262,9.52992857 2.35893255,9.11893255 2.42145635,7.74856745 C2.4792857,6.48148016 2.691,5.79335714 2.8689762,5.33536508 C3.10467857,4.72880159 3.38634523,4.29582937 3.84108729,3.84108729 C4.29582937,3.38634523 4.72880159,3.10467857 5.33541667,2.86892461 C5.79335714,2.691 6.48148016,2.4792857 7.74851588,2.42145635 C9.11893255,2.35893255 9.52992857,2.3457262 13,2.3457262 M13,0.00407539682 C9.4705,0.00407539682 9.02798412,0.0190357143 7.64183333,0.0822817461 C6.25851984,0.145424603 5.31385318,0.365083333 4.48716667,0.686369047 C3.63257143,1.0184881 2.90782143,1.46286111 2.18534127,2.18534128 C1.46286111,2.90782143 1.0184881,3.63257143 0.686369047,4.48716667 C0.365083333,5.31385318 0.145424603,6.25851984 0.0822817461,7.64183333 C0.0190357143,9.02793255 0.00412698412,9.4705 0.00412698412,13 C0.00412698412,16.5295 0.0190357143,16.9720675 0.0822817461,18.3581667 C0.145424603,19.7414802 0.365083333,20.6861468 0.686369047,21.5128333 C1.0184881,22.3673771 1.46286111,23.0921786 2.18534127,23.8146588 C2.90782143,24.5371388 3.63257143,24.981512 4.48716667,25.313631 C5.31385318,25.6349167 6.25851984,25.8545755 7.64183333,25.9177182 C9.02798412,25.9809643 9.4705,25.9958729 13,25.9958729 C16.5295,25.9958729 16.9720674,25.9809643 18.3581667,25.9177182 C19.7414802,25.8545755 20.6861468,25.6349167 21.5128333,25.313631 C22.3674286,24.981512 23.0921786,24.5371388 23.8146588,23.8146588 C24.5371388,23.0921786 24.981512,22.3674286 25.313631,21.5128333 C25.6349167,20.6861468 25.8545755,19.7414802 25.9177182,18.3581667 C25.9809643,16.9720675 25.9959245,16.5295 25.9959245,13 C25.9959245,9.4705 25.9809643,9.02793255 25.9177182,7.64183333 C25.8545755,6.25851984 25.6349167,5.31385318 25.313631,4.48716667 C24.981512,3.63257143 24.5371388,2.90782143 23.8146588,2.18534128 C23.0921786,1.46286111 22.3674286,1.0184881 21.5128333,0.686369047 C20.6861468,0.365083333 19.7414802,0.145424603 18.3581667,0.0822817461 C16.9720674,0.0190357143 16.5295,0.00407539682 13,0.00407539682" id="Fill-1" fill-rule="nonzero"></path>
                    <path d="M13,6.32640872 C9.31429365,6.32640872 6.32640872,9.31429365 6.32640872,13 C6.32640872,16.6857064 9.31429365,19.6735913 13,19.6735913 C16.6857064,19.6735913 19.6735913,16.6857064 19.6735913,13 C19.6735913,9.31429365 16.6857064,6.32640872 13,6.32640872 Z M13,17.3319921 C10.6075357,17.3319921 8.66800794,15.3924643 8.66800794,13 C8.66800794,10.6075357 10.6075357,8.66800794 13,8.66800794 C15.3924643,8.66800794 17.3319921,10.6075357 17.3319921,13 C17.3319921,15.3924643 15.3924643,17.3319921 13,17.3319921 Z" id="Fill-2" fill-rule="nonzero"></path>
                    <path d="M21.4967381,6.06274604 C21.4967381,6.92404763 20.7985555,7.62228175 19.937254,7.62228175 C19.0759524,7.62228175 18.3777183,6.92404763 18.3777183,6.06274604 C18.3777183,5.20144445 19.0759524,4.5032619 19.937254,4.5032619 C20.7985555,4.5032619 21.4967381,5.20144445 21.4967381,6.06274604" id="Fill-3"></path>
                </g>
            </g>
        </g>
    </g>
</svg>