<?xml version="1.0" encoding="UTF-8"?>
<svg width="68px" height="69px" viewBox="0 0 68 69" version="1.1" xmlns="http://www.w3.org/2000/svg" xmlns:xlink="http://www.w3.org/1999/xlink">
    <!-- Generator: Sketch 53.2 (72643) - https://sketchapp.com -->
    <title>ixd</title>
    <desc>Created with Sketch.</desc>
    <g id="ixd" stroke="none" stroke-width="1" fill="none" fill-rule="evenodd">
        <g id="idf-logo-full-expanded" transform="translate(0.000000, 1.000000)" fill="#002FA1" fill-rule="nonzero">
            <path d="M0.000493834725,33.9004938 C-0.0995061653,15.2004938 15.0004938,0.100493835 33.7004938,0.000493834725 C52.4004938,-0.0995061653 67.5004938,15.0004938 67.6004938,33.7004938 C67.7004938,52.4004938 52.6004938,67.5004938 33.9004938,67.6004938 C33.9004938,67.6004938 33.8004938,67.6004938 33.8004938,67.6004938 C15.2004938,67.6004938 0.100493835,52.5004938 0.000493834725,33.9004938 L0.000493834725,33.9004938 Z M4.80049383,33.9004938 C4.80049383,49.9035426 17.7974451,62.9004938 33.8004938,62.9004938 C49.8035426,62.9004938 62.8004938,49.9035426 62.8004938,33.9004938 C62.8004938,17.8974451 49.8919572,4.98890847 33.8889085,4.90049383 L33.8004938,4.90049383 C17.7974451,4.90049383 4.80049383,17.8974451 4.80049383,33.9004938 Z" id="Shape"></path>
            <path d="M23,24.0769231 C24.0869565,23.6153846 25.173913,22.9230769 26.0434783,22 C26.3695652,23.6153846 27.0217391,25.1153846 28,26.5 C27.1304348,26.8461538 26.2608696,27.3076923 25.6086957,28 C25.173913,26.5 24.1956522,25.1153846 23,24.0769231 L23,24.0769231 Z M34.7170445,18.4310487 C33.4919635,18.3172584 32.2668825,18.5448389 31.0418016,19 C30.8376214,16.837985 30.1229909,14.7897602 29,13.0829062 C29.1020901,12.969116 31.9606123,11.717423 33.7982337,12.0587938 C35.6358552,12.4001646 34.8191345,16.7241947 34.8191345,18.4310487 L34.8191345,18.4310487 L34.7170445,18.4310487 Z M38.566325,55 L28.8409956,55 C29.7923865,54.4631226 30.6380673,54.0336207 30.7437775,53.6041188 C31.1666179,51.7787356 31.1666179,49.7386015 30.7437775,47.9132184 C29.8980966,46.1952107 28.4181552,44.906705 26.6210835,44.2624521 C25.9868228,44.3698276 25.3525622,44.691954 24.7183016,45.0140804 L25.7754026,45.7657088 C24.8240117,46.4099617 23.9783309,47.2689655 23.4497804,48.3427203 C22.9212299,47.6984674 22.2869693,47.16159 21.6527086,46.6247126 C22.1812592,45.5509578 23.02694,44.691954 24.084041,44.0477011 L24.6125915,44.5845785 C25.0354319,44.2624521 25.4582723,43.9403256 25.9868228,43.8329502 C24.1897511,43.1886973 22.2869693,42.6518199 20.3841874,42.4370689 L20.3841874,44.3698276 C18.2699854,44.1550766 16.2614934,44.3698276 14.2530015,45.1214559 C14.2530015,44.906705 13.6187408,41.9001915 14.3587116,40.0748084 C15.0986823,38.2494252 19.1156662,40.1821839 20.8070278,40.5043103 C20.7013177,40.9338122 20.5956076,41.4706896 20.4898975,41.9001915 C21.8641288,41.6854406 23.1326501,41.5780651 24.5068814,41.6854406 C23.8726208,40.7190613 22.9212299,39.9674329 21.8641288,39.537931 C20.7013177,39.0010536 19.7499268,38.3568007 18.7985359,37.4977969 L17.2128843,38.3568007 C16.895754,36.3166666 15.838653,34.2765325 14.4644217,32.7732758 C16.0500732,32.4511494 17.5300146,31.8068965 18.904246,31.0552681 C19.1156662,32.5585248 19.4327965,35.6724137 20.4898975,37.068295 C19.8556369,37.068295 19.3270864,37.2830459 18.7985359,37.6051724 C19.8556369,38.3568007 21.1241581,38.8936781 22.3926794,39.2158046 C22.2869693,38.6789272 22.2869693,38.1420498 22.3926794,37.6051724 L21.6527086,37.6051724 C21.5469985,36.6387931 21.5469985,35.7797892 21.7584187,34.8134099 C22.4983895,34.7060344 23.2383602,34.8134099 23.8726208,35.0281609 C23.4497804,35.8871647 23.2383602,36.7461685 23.2383602,37.7125478 L22.3926794,37.7125478 C22.3926794,38.3568007 22.4983895,38.8936781 22.8155198,39.4305555 C24.1897511,39.8600574 25.4582723,40.8264367 26.198243,42.1149425 L29.0524158,42.8665708 C29.0524158,42.3296935 28.9467057,41.7928161 28.7352855,41.3633141 L27.9953148,41.5780651 C27.7838946,40.6116858 27.3610542,39.752682 26.7267936,39.1084291 C27.3610542,38.7863026 28.1010249,38.4641762 28.8409956,38.3568007 C29.263836,39.2158046 29.4752562,40.0748084 29.5809663,41.0411877 L28.7352855,41.0411877 C29.0524158,41.5780651 29.263836,42.1149425 29.3695461,42.7591954 L31.0609078,43.5108237 C31.272328,40.9338122 30.4266471,38.4641762 28.8409956,36.5314176 L27.149634,37.9272988 C26.6210835,35.6724137 23.3440703,32.7732758 23.3440703,32.7732758 C24.6125915,32.1290229 25.7754026,31.2700191 26.8325037,30.1962643 C28.8409956,31.2700191 30.320937,34.383908 30.6380673,35.2429118 L29.0524158,36.1019157 L30.9551977,37.7125478 L31.6951684,38.7863026 C32.1180088,38.4641762 32.4351391,38.0346743 32.7522694,37.4977969 L31.6951684,37.1756704 C32.4351391,36.1019157 32.8579795,34.9207854 33.0693997,33.6322796 C33.8093704,34.169157 34.6550512,34.4912835 35.5007321,34.5986589 C35.395022,35.8871647 34.9721816,37.1756704 34.2322108,38.2494252 L33.1751098,37.7125478 C32.9636896,38.3568007 32.6465593,39.0010536 32.1180088,39.537931 C32.7522694,40.9338122 33.1751098,42.5444444 33.8093704,44.0477011 C37.6149341,40.8264367 36.5578331,34.7060344 35.8178624,31.914272 L34.0207906,33.3101532 C32.7522694,31.2700191 31.0609078,29.6593869 29.0524158,28.4782566 C29.1581259,28.3708812 31.3780381,25.5791187 33.4922401,25.0422413 C35.6064422,24.5053639 36.6635432,29.229885 37.6149341,31.0552681 L36.2407028,31.8068965 C37.1920937,33.3101532 37.9320644,34.9207854 38.2491947,36.6387931 L39.9405564,35.2429118 L39.2005857,34.9207854 C39.7291362,33.8470306 40.574817,32.9880268 41.631918,32.3437739 C42.1604685,32.9880268 42.7947291,33.5249042 43.4289898,33.9544061 C42.4775988,34.5986589 41.631918,35.4576628 41.1033675,36.5314176 L40.1519766,35.5650383 C39.4120059,36.5314176 38.7777452,37.7125478 38.3549048,38.8936781 C38.4606149,40.1821839 38.3549048,41.5780651 38.0377745,42.8665708 C39.0948755,42.222318 40.2576867,41.9001915 41.5262079,41.7928161 C41.8433382,40.5043103 42.5833089,39.537931 43.7461201,38.8936781 L42.5833089,37.4977969 C43.8518302,36.2092911 46.2831625,33.8470306 47.6573939,33.5249042 C48.9259151,34.7060344 49.877306,36.1019157 50.5115666,37.7125478 C48.5030747,38.1420498 46.6002928,39.1084291 45.0146413,40.5043103 L44.0632504,39.1084291 C43.4289898,39.8600574 43.0061493,40.7190613 42.9004392,41.6854406 C44.4860908,41.5780651 46.1774524,41.6854406 47.763104,41.9001915 C47.8688141,41.2559387 47.9745242,40.7190613 47.8688141,40.0748084 C48.7144949,39.9674329 52.0972182,40.0748084 54,41.4706896 C53.5771596,42.8665708 53.2600293,44.3698276 53.2600293,45.8730843 C53.2600293,45.8730843 49.3487555,44.1550766 47.1288433,44.5845785 C47.3402635,43.9403256 47.5516837,43.1886973 47.6573939,42.5444444 C45.4374817,42.3296935 43.2175695,42.6518199 41.1033675,43.5108237 L43.2175695,43.9403256 C43.3232796,43.7255747 43.4289898,43.4034482 43.4289898,43.1886973 C44.5918009,43.4034482 45.6489019,44.0477011 46.4945827,44.906705 C45.8603221,45.4435823 45.4374817,46.1952107 45.2260615,46.9468391 C44.3803807,46.1952107 43.3232796,45.6583333 42.1604685,45.3362069 L42.9004392,44.1550766 C41.9490483,44.0477011 40.9976574,43.9403256 40.0462665,44.0477011 L38.3549048,45.2288314 C37.7206442,45.8730843 37.1920937,46.6247126 36.8749634,47.4837165 C37.1920937,47.9132184 37.2978038,48.4500958 37.2978038,48.9869732 C37.4035139,49.845977 36.9806735,50.5976054 36.2407028,51.0271073 C36.2407028,52.2082375 36.6635432,53.3893678 37.4035139,54.2483716 L38.566325,55 Z M35.9778591,48.0526316 C36.0647426,47.6315789 35.8909757,47.2105263 35.5434417,47 C35.1959078,47.1052632 35.0221409,47.5263158 35.0221409,47.9473684 C34.9352574,48.3684211 35.1090243,48.7894737 35.4565583,49 C35.8040922,48.8947368 36.0647426,48.4736842 35.9778591,48.0526316 L35.9778591,48.0526316 Z M34.8977594,47.0909091 C34.1977594,47.2727273 33.8977594,48 34.0977594,49 C33.9977594,48.3636364 34.2977594,47.7272727 34.7977594,47.2727273 C35.0977594,47.0909091 34.8977594,47 34.8977594,47 L34.8977594,47 L34.8977594,47.0909091 L34.8977594,47.0909091 Z M28.8,24.0916135 C27.9,22.0477438 26.6,20.2309708 25,18.868391 C25.1,18.7548427 27.3,16.4838764 29.1,16.0296831 C30.9,15.5754899 31.5,20.4580674 32,22.1612921 L30.3,22.9561303 C30.5,23.6374202 30.5,24.3187101 30.3,25 C30.2,24.4322584 30.1,23.7509685 29.9,23.183227 L28.8,24.0916135 Z M14,34.7142857 C13.5555556,35.2244898 13.4444444,37.4693878 13.5555556,39 C11.4444444,38.3877551 9.22222222,38.1836735 7,38.2857143 C7.44444444,36.8571429 7.66666667,35.4285714 7.44444444,34 C8.44444444,34.7142857 12.4444444,34.8163265 14,34.7142857 Z M24,29.6493506 C22.5373134,29.7532468 21.1791045,30.2727273 19.9253731,31 C19.8208955,29.025974 17.9402985,26.2207792 17,24.7662338 C18.880597,24.6623377 22.2238806,23 22.2238806,23 C21.8059701,24.8701299 22.8507463,27.7792208 23.8955224,29.6493506 L24,29.6493506 L24,29.6493506 Z M40.0507401,20 C39.1014802,19.7692308 38.1522202,19.7692308 37.2029603,20 C37.0131083,18.5 36.8232563,15.3846154 37.2978863,14.1153846 C38.5319242,13.8846154 39.7659621,14 41,14.4615385 C40.3355181,16.1923077 39.9558141,18.0384615 40.0507401,20 L40.0507401,20 Z M22.1,22 C22.1,22 20.4,19.1153846 19,18.5384615 C19.8,17.8461538 20.5,16.9230769 21,16 C22.3,16.8076923 23.3,17.9615385 24,19.4615385 C23.2,20.1538462 22.6,21.0769231 22.1,22 Z M43,28.9462366 C44.9275362,27.8709677 46.8550725,24 46.8550725,24 C47.7681159,25.1827957 48.7826087,26.1505376 50,27.0107527 C49.3913043,29.2688172 46.9565217,31.5268817 46.2463768,31.9569892 C45.942029,31.5268817 45.6376812,31.0967742 45.2318841,30.7741935 C44.4202899,31.6344086 43.8115942,32.8172043 43.5072464,34 C43.7101449,32.7096774 44.2173913,31.5268817 44.826087,30.4516129 L43,28.9462366 Z M52.6875,40 C52.9125,39.2686567 51.9,36.8656716 51,35.1940299 C53.5875,34.9850746 56.0625,34.2537313 58.3125,33 C58.5375,34.6716418 59.1,36.3432836 60,37.8059701 C58.65,37.5970149 54.2625,39.1641791 52.6875,40 L52.6875,40 Z M49,31.0526316 C50.6202532,30 52.8481013,27.7894737 53.3544304,26 C54.3670886,27.4736842 55.5822785,28.7368421 57,29.7894737 C55.5822785,30.6315789 52.7468354,32.4210526 51.835443,34 C51.1265823,32.7368421 50.2151899,31.7894737 49,31.0526316 L49,31.0526316 Z M41,22.7647059 C41.6206897,21.5294118 42.9655172,18.0294118 42.862069,17 C44.1034483,17.7205882 45.5517241,18.1323529 47,18.3382353 C46.0689655,20.0882353 45.4482759,22.0441176 45.2413793,24 C43.8965517,23.2794118 41.7241379,22.4558824 41.1034483,22.6617647 L41.1034483,22.6617647 L41,22.7647059 Z M39.4642857,28.8888889 C39.1428571,30.3333333 38.5,31.7777778 37.6428571,33 C38.2857143,31.6666667 38.6071429,30.2222222 38.7142857,28.6666667 L37,28.2222222 C38.0714286,26.7777778 38.2857143,23.5555556 38.3928571,22 C39.8928571,22.7777778 41.3928571,23.3333333 43,23.5555556 C41.7142857,24.6666667 40.8571429,27.5555556 40.6428571,29.5555556 L39.4642857,28.8888889 Z M33,20.6521739 C34.1111111,20.6521739 35.1111111,20.4347826 36.1111111,20 C36.1111111,21.5217391 36.4444444,22.9347826 37,24.3478261 C35.8888889,24.3478261 34.8888889,24.5652174 33.8888889,25 C33.8888889,23.4782609 33.5555556,22.0652174 33,20.6521739 L33,20.6521739 Z M53,21.7391304 C51.9130435,22.6086957 50.9347826,23.6956522 50.3913043,25 C49.6304348,24.4565217 48.8695652,24.1304348 48,23.9130435 C48.4347826,22.826087 49.1956522,20.6521739 49.9565217,20 C51.0434783,20.326087 52.1304348,20.8695652 53,21.6304348 L53,21.7391304 L53,21.7391304 Z M14.3214286,30 C13.6785714,28.2545455 11,26.1818182 11,26.1818182 C11.9642857,25.5272727 12.8214286,24.8727273 13.5714286,24 C15.0714286,24.8727273 16.25,26.0727273 17,27.6 C16.0357143,28.2545455 15.0714286,29.0181818 14.3214286,30 Z" id="Shape"></path>
        </g>
    </g>
</svg>